<?xml version="1.0" encoding="UTF-8" standalone="no"?>
<svg version="1.1" xmlns="http://www.w3.org/2000/svg" xmlns:xlink="http://www.w3.org/1999/xlink" xmlns:i="http://ns.adobe.com/AdobeIllustrator/10.0/" width="336" height="576">
	<g id="dp_dp001">
		<path id="dp_path002" fill="none" fill-rule="evenodd" stroke="#ebf65d" stroke-width="7.33333" stroke-linecap="round" d="M 224.001,391.429 C 204.475,381.076 185.184,347.864 253.719,279.427"/>
		<path id="dp_path003" fill="none" fill-rule="evenodd" stroke="black" stroke-width="7.33333" d="M 323.717,200.296 C 314.159,231.828 292.817,266.472 276.928,299.361 C 241.173,373.371 246.319,359.581 242.227,391.896 C 281.297,410.773 227.096,430.109 248.091,453.351 C 254.756,460.729 264.189,484.145 259.105,491.096 C 257.505,493.284 247.852,502.576 248.757,505.608 C 252.54,518.269 264.875,523.151 250.091,534.935 C 233.564,548.108 221.108,541.953 210.293,547.56 C 200.5,552.637 198.488,566.187 188.585,569.096 C 181.893,571.063 173.148,571.784 160.279,571.737"/>
		<path id="dp_path004" fill="none" fill-rule="evenodd" stroke="#ebf65d" stroke-width="7.33333" stroke-linecap="round" d="M 116.757,389.896 C 135.924,380.103 126.439,304.28 96.8613,280.569"/>
		<path id="dp_path005" fill="none" fill-rule="evenodd" stroke="black" stroke-width="7.33333" d="M 11.8133,198.081 C 21.4547,229.613 43.888,266.472 59.9147,299.361 C 76.844,334.104 84.6827,349.499 88.6613,359.396 C 93.1587,370.584 92.7267,374.751 94.916,391.896 C 55.5067,410.773 110.177,430.109 89.0013,453.351 C 82.2787,460.729 72.7627,484.145 77.8907,491.096 C 79.5053,493.284 89.2427,502.576 88.3293,505.608 C 84.5133,518.269 72.072,523.151 86.984,534.935 C 103.653,548.108 116.217,541.953 127.125,547.56 C 137.004,552.637 139.033,566.187 149.021,569.096 C 155.772,571.063 165.905,573.829 178.692,571.227"/>
		<path id="dp_path006" fill="none" fill-rule="evenodd" stroke="black" stroke-width="7.33333" d="M 11.8707,198.081 C 11.5987,197.955 11.4867,196.205 11.4547,196.027 C 11.0947,194.015 10.8427,192.136 10.6253,190.265 C 7.70133,165.103 10.644,134.892 20.0653,110.077 C 42.7773,50.256 102.472,4.92267 168.328,3.76667 C 256.977,5.048 326.58,80.2533 327.489,165.111 C 327.657,180.749 325.445,200.493 321.152,205.871"/>
		<path id="dp_path007" fill="none" fill-rule="evenodd" stroke="black" stroke-width="7.33333" d="M 92.3573,389.896 C 153.94,390.429 181.945,390.963 243.557,391.496"/>
		<path id="dp_path008" fill="none" fill-rule="evenodd" stroke="black" stroke-width="7.33333" d="M 80.3573,465.896 C 110.251,461.717 150.776,459.805 182.757,452.296 C 195.995,449.188 235.139,430.963 244.924,429.499 C 246.057,429.329 246.591,431.649 247.557,430.696"/>
		<path id="dp_path009" fill="#ebf65d" d="M 160.291,177.731 C 159.011,190.251 156.871,199.96 153.891,206.851 C 151.821,211.551 148.841,215.42 144.931,218.48 C 143.431,219.691 141.921,220.611 140.391,221.251 C 138.861,221.891 137.101,222.121 135.111,221.951 C 133.121,221.771 131.271,221.001 129.571,219.651 C 125.511,216.451 124.451,212.041 126.371,206.431 C 127.431,203.371 129.501,199.881 132.551,195.971 C 135.331,192.351 138.211,188.971 141.191,185.841 C 135.931,186.121 131.811,184.951 128.821,182.321 C 125.411,179.331 123.811,174.891 124.021,168.991 C 124.161,164.081 125.421,158.981 127.811,153.681 C 130.191,148.381 133.021,144.171 136.291,141.041 C 138.491,138.911 140.911,137.241 143.541,136.031 C 148.021,133.961 151.501,134.211 153.991,136.771 C 157.051,139.901 159.111,144.881 160.181,151.711 C 161.031,157.181 161.251,163.581 160.821,170.911 C 163.951,169.411 167.011,168.451 169.991,168.031 C 170.781,167.961 171.491,168.151 172.131,168.611 C 172.771,169.081 173.141,169.701 173.251,170.481 C 173.351,171.261 173.181,171.971 172.711,172.611 C 172.251,173.251 171.631,173.641 170.851,173.791 C 167.501,174.281 163.98,175.601 160.291,177.731 Z M 154.74,174.321 L 154.851,174.321 L 155.061,171.331 C 155.491,164.081 155.311,157.861 154.531,152.671 C 153.601,146.981 152.071,143.031 149.941,140.831 C 149.301,140.191 147.98,140.331 145.991,141.251 C 143.931,142.181 142.051,143.461 140.341,145.091 C 137.571,147.801 135.131,151.461 133.031,156.081 C 130.941,160.701 129.851,165.081 129.781,169.201 C 129.641,173.251 130.561,176.201 132.551,178.051 C 135.041,180.191 139.101,180.681 144.711,179.551 C 145.851,179.331 146.971,178.98 148.071,178.48 C 149.181,177.98 150.031,177.541 150.631,177.151 C 151.24,176.761 152.321,175.96 153.891,174.751 C 154.171,174.531 154.46,174.391 154.74,174.321 Z M 153.991,182.001 C 148.231,186.48 142.581,192.281 137.031,199.391 C 134.401,202.871 132.661,205.821 131.811,208.241 C 130.811,211.371 131.271,213.681 133.191,215.171 C 135.471,216.951 138.211,216.561 141.411,214.001 C 144.541,211.511 146.921,208.351 148.551,204.511 C 150.831,199.321 152.641,191.811 153.991,182.001 Z "/>
		<path id="dp_path010" fill="#ebf65d" d="M 195.491,171.651 C 195.561,171.651 195.631,171.691 195.701,171.761 C 196.271,172.331 196.591,173.041 196.661,173.891 C 196.731,174.531 196.621,175.281 196.341,176.131 C 196.341,176.281 196.161,176.701 195.811,177.411 L 195.701,177.951 C 195.271,180.221 195.061,181.401 195.061,181.471 C 194.921,182.681 194.811,183.881 194.74,185.091 C 194.601,186.44 194.531,187.231 194.531,187.44 C 194.531,190.281 194.811,192.561 195.381,194.271 C 196.161,196.191 197.341,197.361 198.901,197.791 C 200.321,198.141 201.641,197.791 202.851,196.721 C 204.131,195.581 205.411,193.631 206.691,190.851 C 207.611,188.791 208.571,186.051 209.571,182.641 C 210.921,178.371 211.661,176.061 211.811,175.711 C 212.091,174.92 212.591,174.371 213.301,174.051 C 214.011,173.731 214.74,173.721 215.491,174.001 C 216.231,174.281 216.771,174.781 217.091,175.491 C 217.411,176.201 217.421,176.92 217.141,177.631 C 217.071,177.911 216.391,180.151 215.111,184.351 C 214.051,187.901 212.98,190.891 211.911,193.311 C 210.351,196.791 208.571,199.391 206.581,201.091 C 203.811,203.511 200.751,204.261 197.411,203.331 C 193.851,202.341 191.401,199.96 190.051,196.191 C 189.831,195.691 189.661,195.121 189.511,194.48 C 188.941,195.48 188.341,196.361 187.701,197.151 C 185.501,200.131 183.181,201.98 180.771,202.691 C 177.421,203.691 174.401,202.591 171.701,199.391 C 169.711,197.041 168.821,193.451 169.031,188.611 C 169.251,184.491 170.211,180.291 171.911,176.031 C 173.761,171.401 176.071,167.991 178.851,165.791 C 182.621,162.941 186.531,162.621 190.581,164.831 C 192.861,166.181 194.311,167.561 194.951,168.991 C 195.171,169.631 195.341,170.411 195.491,171.331 Z M 190.051,174.751 C 189.98,174.251 189.871,173.361 189.731,172.081 C 189.661,171.581 189.581,171.261 189.511,171.121 C 189.581,170.981 189.021,170.591 187.811,169.951 C 185.96,168.881 184.141,169.021 182.371,170.371 C 180.381,171.941 178.671,174.531 177.251,178.161 C 175.751,181.721 174.941,185.311 174.791,188.931 C 174.651,192.281 175.111,194.551 176.181,195.761 C 177.251,196.971 178.24,197.431 179.171,197.151 C 180.301,196.791 181.621,195.621 183.111,193.631 C 184.46,191.851 185.711,189.721 186.851,187.231 C 187.98,184.811 188.771,182.851 189.191,181.361 C 189.261,181.081 189.341,180.831 189.411,180.611 L 189.411,179.871 C 189.621,178.021 189.831,176.521 190.051,175.391 C 190.051,175.171 190.081,175.001 190.151,174.851 C 190.151,174.781 190.121,174.751 190.051,174.751 Z "/>
		<path id="dp_path011" fill="#ebf65d" d="M 226.561,175.071 C 226.421,173.641 226.211,172.471 225.921,171.551 C 225.641,170.621 225.391,170.091 225.181,169.951 L 224.751,169.631 C 223.971,169.411 222.72,170.231 221.021,172.081 C 218.881,174.431 217.181,177.48 215.901,181.251 C 214.621,184.951 214.301,188.401 214.941,191.601 C 215.501,194.591 217.46,196.471 220.801,197.251 C 224.291,198.041 227.24,197.361 229.661,195.231 C 234.061,191.321 237.48,184.671 239.901,175.281 C 240.111,174.501 240.551,173.911 241.231,173.521 C 241.901,173.131 242.631,173.041 243.421,173.251 C 244.201,173.471 244.781,173.911 245.181,174.591 C 245.571,175.261 245.661,175.991 245.441,176.771 C 242.74,187.301 238.761,194.871 233.501,199.491 C 231.651,201.131 229.46,202.231 226.941,202.801 C 224.411,203.371 221.941,203.401 219.521,202.911 C 216.96,202.271 214.74,201.091 212.861,199.391 C 210.971,197.681 209.74,195.44 209.181,192.671 C 208.391,188.471 208.801,184.081 210.401,179.491 C 212.001,174.911 214.151,171.121 216.861,168.131 C 220.131,164.651 223.291,163.301 226.351,164.081 C 229.761,165.081 231.751,168.601 232.321,174.641 C 232.391,175.42 232.181,176.121 231.681,176.721 C 231.181,177.321 230.531,177.661 229.711,177.731 C 228.891,177.801 228.181,177.591 227.581,177.091 C 226.971,176.601 226.631,175.92 226.561,175.071 Z "/>
		<path id="dp_path012" fill="#ebf65d" d="M 245.871,160.241 C 246.081,159.961 246.361,159.531 246.72,158.961 C 247.361,157.891 248.141,156.171 249.071,153.791 C 249.991,151.401 250.771,149.001 251.411,146.591 C 252.121,143.881 252.411,141.721 252.271,140.081 C 252.201,138.871 251.911,138.121 251.411,137.841 C 250.421,137.411 249.46,138.521 248.531,141.151 C 247.681,143.641 247.081,146.551 246.72,149.891 C 246.361,153.161 246.081,156.611 245.871,160.241 Z M 245.011,180.721 C 244.941,182.211 244.911,183.811 244.911,185.521 L 245.011,185.521 C 248.571,185.091 252.051,183.711 255.471,181.361 C 259.021,178.94 260.661,176.451 260.371,173.891 C 260.231,172.761 259.801,171.901 259.091,171.331 C 256.96,169.631 254.361,169.951 251.311,172.291 C 248.46,174.571 246.361,177.381 245.011,180.721 Z M 248.211,190.751 C 252.621,195.161 257.141,196.831 261.761,195.761 C 264.321,195.121 267.061,191.96 269.971,186.271 C 272.111,181.931 273.881,177.241 275.311,172.191 C 275.521,171.401 275.96,170.821 276.641,170.431 C 277.321,170.041 278.041,169.951 278.831,170.161 C 279.611,170.371 280.201,170.821 280.591,171.491 C 280.98,172.171 281.071,172.901 280.851,173.681 C 279.361,179.161 277.441,184.201 275.091,188.831 C 271.321,196.151 267.311,200.311 263.041,201.311 C 256.711,202.801 250.671,200.881 244.911,195.551 L 244.911,198.641 C 244.911,199.42 244.621,200.101 244.051,200.671 C 243.48,201.241 242.811,201.521 242.031,201.521 C 241.24,201.521 240.571,201.241 240.001,200.671 C 239.431,200.101 239.151,199.42 239.151,198.641 C 239.151,190.321 239.161,184.521 239.201,181.251 C 239.24,177.98 239.411,173.091 239.731,166.591 C 240.051,160.081 240.571,154.231 241.281,149.041 C 241.851,145.131 242.811,141.681 244.161,138.691 C 245.231,136.421 246.671,134.571 248.48,133.151 C 250.291,131.721 252.48,131.511 255.041,132.511 C 258.101,133.571 259.771,135.921 260.051,139.551 C 260.271,141.961 259.801,144.921 258.671,148.401 C 257.74,151.101 256.571,153.801 255.151,156.511 C 253.72,159.211 252.48,161.241 251.411,162.591 C 250.201,164.081 249.141,165.111 248.211,165.681 C 247.791,165.961 246.861,166.391 245.441,166.961 L 245.231,170.051 C 246.081,169.201 246.931,168.451 247.791,167.811 C 249.211,166.681 250.681,165.801 252.211,165.201 C 253.74,164.601 255.451,164.381 257.331,164.561 C 259.22,164.741 261.011,165.501 262.72,166.851 C 264.711,168.421 265.851,170.551 266.131,173.251 C 266.631,178.091 264.141,182.391 258.671,186.161 C 255.471,188.291 251.98,189.821 248.211,190.751 Z "/>
		<path id="dp_path013" fill="#ebf65d" d="M 107.811,249.431 C 103.401,250.141 99.3107,251.181 95.5413,252.531 C 93.1907,253.451 90.6907,254.681 88.0213,256.211 C 85.3547,257.741 83.204,259.351 81.568,261.061 C 79.7907,262.841 78.9013,264.471 78.9013,265.971 C 78.9013,267.601 80.0387,269.241 82.3147,270.871 C 85.0173,272.861 87.9107,274.291 91.0107,275.141 C 94.1013,275.991 96.9613,276.261 99.5907,275.94 C 102.221,275.621 104.571,274.861 106.631,273.651 C 108.621,272.44 110.171,270.891 111.271,269.011 C 112.381,267.121 112.841,264.701 112.661,261.751 C 112.48,258.801 111.471,255.581 109.621,252.101 C 109.261,251.391 108.661,250.501 107.811,249.431 Z M 122.531,220.311 C 120.391,217.541 117.191,215.341 112.931,213.701 C 111.22,213.061 109.091,212.881 106.531,213.171 C 103.971,213.451 101.551,214.201 99.2707,215.411 C 94.3707,217.901 92.2707,221.061 92.9813,224.901 C 93.0507,225.401 93.9013,226.571 95.5413,228.42 C 96.8213,229.841 98.9907,232.081 102.051,235.141 C 106.741,239.831 109.441,242.571 110.151,243.351 C 113.501,242.931 116.911,242.711 120.391,242.711 C 121.181,242.711 121.851,243.001 122.421,243.571 C 122.991,244.141 123.271,244.811 123.271,245.591 C 123.271,246.381 122.991,247.051 122.421,247.621 C 121.851,248.191 121.181,248.471 120.391,248.471 C 118.401,248.471 116.381,248.541 114.311,248.691 L 114.74,249.331 C 118.011,256.011 119.131,261.861 118.101,266.871 C 117.071,271.891 114.24,275.781 109.621,278.551 C 105.571,281.111 100.661,282.141 94.9013,281.651 C 89.1413,281.151 83.808,279.121 78.9013,275.571 C 74.9907,272.721 73.0707,269.491 73.1413,265.861 C 73.1413,262.871 74.564,259.92 77.408,257.011 C 79.4707,254.94 82.012,253.021 85.0347,251.251 C 88.0613,249.471 90.9213,248.121 93.6213,247.191 C 96.6107,246.061 99.8107,245.131 103.221,244.42 L 98.1013,239.301 C 94.8307,236.101 92.5507,233.751 91.2707,232.261 C 88.8613,229.631 87.5013,227.531 87.2213,225.971 C 86.6507,222.48 87.2907,219.391 89.1413,216.691 C 90.9907,213.98 93.5107,211.851 96.7107,210.291 C 99.5613,208.791 102.621,207.831 105.891,207.411 C 109.161,207.051 112.141,207.371 114.851,208.371 C 120.181,210.291 124.231,213.061 127.011,216.691 C 127.501,217.331 127.701,218.061 127.591,218.871 C 127.491,219.691 127.131,220.331 126.531,220.791 C 125.921,221.261 125.211,221.431 124.391,221.331 C 123.581,221.221 122.951,220.881 122.531,220.311 Z "/>
		<path id="dp_path014" fill="#ebf65d" d="M 143.261,250.071 C 142.971,250.221 142.581,250.501 142.081,250.931 C 140.731,251.991 139.24,253.881 137.601,256.581 C 136.251,258.861 134.971,261.201 133.761,263.621 C 132.621,266.111 131.911,267.821 131.631,268.741 C 131.491,269.101 131.341,269.631 131.201,270.341 C 130.701,273.331 130.171,276.241 129.601,279.091 C 129.601,279.371 129.571,279.581 129.501,279.731 C 129.501,280.011 129.421,280.301 129.281,280.581 C 129.141,280.791 128.96,281.011 128.751,281.221 C 127.751,282.221 126.651,282.431 125.441,281.861 C 124.661,281.501 124.161,280.901 123.951,280.051 C 123.881,279.901 123.841,279.731 123.841,279.511 L 123.841,278.98 L 123.841,278.451 C 123.911,277.811 124.091,276.781 124.381,275.351 C 124.801,272.94 125.191,270.911 125.551,269.271 C 126.471,263.021 127.151,256.651 127.581,250.181 C 127.651,249.401 127.98,248.741 128.591,248.211 C 129.191,247.671 129.891,247.44 130.671,247.511 C 131.451,247.581 132.111,247.92 132.641,248.531 C 133.181,249.131 133.411,249.821 133.341,250.611 C 133.261,251.391 133.231,252.141 133.231,252.851 C 135.011,250.001 136.681,247.901 138.24,246.551 C 141.301,243.92 144.071,243.531 146.561,245.381 C 147.841,246.301 148.731,247.761 149.231,249.751 C 149.581,251.101 149.801,252.811 149.871,254.871 C 149.871,256.151 149.821,258.251 149.711,261.171 C 149.601,264.081 149.551,265.821 149.551,266.391 C 149.48,270.731 149.801,273.821 150.511,275.671 C 150.791,276.531 151.171,277.111 151.631,277.431 C 152.091,277.751 152.781,277.881 153.711,277.811 C 155.131,277.661 156.201,277.311 156.911,276.741 C 157.411,276.241 158.22,275.101 159.361,273.331 C 160.931,270.911 162.421,267.92 163.841,264.371 L 164.48,262.551 L 164.48,262.341 L 164.591,261.491 C 164.661,261.42 164.711,261.331 164.751,261.221 C 164.781,261.111 164.801,261.021 164.801,260.951 L 165.231,260.211 L 167.361,255.091 C 167.72,254.381 168.251,253.881 168.96,253.591 C 169.671,253.311 170.401,253.331 171.151,253.651 C 171.901,253.971 172.411,254.48 172.701,255.191 C 172.98,255.901 172.98,256.651 172.701,257.431 L 171.421,260.311 L 171.421,260.531 C 171.271,261.021 170.531,263.021 169.181,266.501 C 167.611,270.411 165.98,273.751 164.271,276.531 C 162.851,278.731 161.641,280.261 160.641,281.111 C 159.011,282.46 156.841,283.281 154.141,283.571 C 151.861,283.781 149.901,283.321 148.271,282.181 C 146.851,281.181 145.781,279.691 145.071,277.701 C 144.141,275.211 143.72,271.411 143.791,266.291 C 143.861,265.651 143.931,263.94 144.001,261.171 C 144.071,258.391 144.111,256.331 144.111,254.98 C 144.041,253.341 143.901,252.101 143.681,251.251 C 143.541,250.681 143.401,250.291 143.261,250.071 Z "/>
		<path id="dp_path015" fill="#ebf65d" d="M 172.021,264.051 C 173.731,265.041 175.471,265.261 177.251,264.691 C 179.451,263.901 181.371,262.271 183.011,259.781 C 184.571,257.361 185.281,255.091 185.141,252.951 C 185.071,251.101 184.22,249.931 182.581,249.431 C 180.661,248.721 178.671,249.751 176.611,252.531 C 174.261,255.581 172.731,259.42 172.021,264.051 Z M 171.911,270.231 C 172.131,272.301 172.661,273.971 173.511,275.251 C 175.291,277.881 178.351,278.701 182.691,277.701 C 186.24,276.851 189.021,274.541 191.011,270.771 C 191.72,269.42 192.361,268.011 192.931,266.551 C 193.501,265.101 194.101,263.411 194.74,261.491 C 195.381,259.571 195.951,257.931 196.451,256.581 C 196.731,255.871 197.231,255.351 197.941,255.031 C 198.651,254.711 199.381,254.701 200.131,254.98 C 200.871,255.261 201.411,255.761 201.731,256.471 C 202.051,257.181 202.061,257.931 201.781,258.711 L 200.291,263.191 C 199.581,265.181 198.901,267.031 198.261,268.741 C 197.621,270.451 196.911,272.051 196.131,273.541 C 193.351,278.801 189.301,282.041 183.971,283.251 C 177.071,284.881 172.021,283.281 168.821,278.451 C 166.261,274.681 165.441,269.701 166.371,263.511 C 167.151,257.751 169.031,252.92 172.021,249.011 C 173.661,246.871 175.541,245.291 177.671,244.261 C 179.811,243.231 182.081,243.101 184.501,243.891 C 188.551,245.311 190.691,248.221 190.901,252.631 C 191.111,256.051 190.081,259.501 187.811,262.98 C 185.46,266.611 182.541,268.991 179.061,270.131 C 176.641,270.911 174.261,270.94 171.911,270.231 Z "/>
		<path id="dp_path016" fill="#ebf65d" d="M 201.031,264.051 C 202.74,265.041 204.48,265.261 206.261,264.691 C 208.46,263.901 210.381,262.271 212.021,259.781 C 213.581,257.361 214.301,255.091 214.151,252.951 C 214.081,251.101 213.231,249.931 211.591,249.431 C 209.671,248.721 207.681,249.751 205.621,252.531 C 203.271,255.581 201.74,259.42 201.031,264.051 Z M 200.931,270.231 C 201.141,272.301 201.671,273.971 202.531,275.251 C 204.301,277.881 207.361,278.701 211.701,277.701 C 215.261,276.851 218.031,274.541 220.021,270.771 C 220.731,269.42 221.371,268.011 221.941,266.551 C 222.511,265.101 223.111,263.411 223.751,261.491 C 224.391,259.571 224.96,257.931 225.46,256.581 C 225.74,255.871 226.24,255.351 226.951,255.031 C 227.661,254.711 228.391,254.701 229.141,254.98 C 229.891,255.261 230.421,255.761 230.74,256.471 C 231.061,257.181 231.081,257.931 230.791,258.711 L 229.301,263.191 C 228.591,265.181 227.911,267.031 227.271,268.741 C 226.631,270.451 225.921,272.051 225.141,273.541 C 222.371,278.801 218.311,282.041 212.98,283.251 C 206.081,284.881 201.031,283.281 197.831,278.451 C 195.271,274.681 194.46,269.701 195.381,263.511 C 196.161,257.751 198.051,252.92 201.031,249.011 C 202.671,246.871 204.551,245.291 206.691,244.261 C 208.821,243.231 211.101,243.101 213.511,243.891 C 217.571,245.311 219.701,248.221 219.911,252.631 C 220.131,256.051 219.101,259.501 216.821,262.98 C 214.471,266.611 211.561,268.991 208.071,270.131 C 205.661,270.911 203.271,270.94 200.931,270.231 Z "/>
		<path id="dp_path017" fill="#ebf65d" d="M 244.701,266.291 C 244.341,264.94 244.021,263.48 243.74,261.911 C 242.951,258.071 242.531,256.081 242.46,255.94 C 242.381,255.661 242.351,255.371 242.351,255.091 C 240.711,252.881 239.151,251.781 237.661,251.781 C 235.951,251.781 234.24,253.171 232.541,255.94 C 230.621,259.071 229.48,262.551 229.121,266.391 C 228.701,270.231 229.231,273.151 230.72,275.141 C 231.861,276.701 233.501,277.061 235.631,276.211 C 237.901,275.281 239.861,273.681 241.501,271.411 C 242.561,269.911 243.631,268.211 244.701,266.291 Z M 247.361,254.231 C 247.72,254.871 248.041,255.621 248.321,256.471 C 248.321,256.541 248.361,256.621 248.431,256.691 C 250.421,249.221 252.161,240.331 253.661,230.021 C 253.661,229.811 253.661,229.631 253.661,229.491 C 253.661,229.061 253.691,228.281 253.761,227.141 C 253.831,226.001 253.871,225.151 253.871,224.581 C 254.011,222.661 253.941,221.241 253.661,220.311 C 253.371,218.891 252.941,218.181 252.381,218.181 C 251.591,218.111 250.781,218.781 249.921,220.211 C 247.931,223.551 246.791,229.381 246.511,237.701 C 246.301,243.671 246.581,249.181 247.361,254.231 Z M 241.071,246.771 C 240.711,242.711 240.611,238.701 240.751,234.711 C 241.251,224.471 243.381,217.041 247.151,212.42 C 249.641,209.361 252.411,207.94 255.471,208.151 C 257.181,208.221 258.651,208.831 259.901,209.971 C 261.141,211.101 262.081,212.631 262.72,214.551 C 263.22,216.191 263.401,218.361 263.261,221.061 C 263.261,221.701 263.201,222.661 263.101,223.94 C 262.991,225.221 262.941,226.141 262.941,226.711 C 262.941,227.071 262.831,227.46 262.621,227.891 C 259.421,244.311 255.471,257.331 250.781,266.931 L 251.631,269.811 C 252.701,272.791 253.801,274.781 254.941,275.781 C 255.22,276.061 255.501,276.211 255.791,276.211 C 256.22,276.211 256.751,275.96 257.391,275.46 C 261.511,272.261 264.501,265.611 266.351,255.511 C 266.491,254.731 266.901,254.111 267.581,253.651 C 268.251,253.181 268.98,253.021 269.761,253.171 C 270.541,253.311 271.171,253.721 271.631,254.391 C 272.091,255.071 272.251,255.801 272.111,256.581 C 269.98,268.101 266.281,275.891 261.021,279.94 C 259.24,281.291 257.501,281.971 255.791,281.971 C 254.081,281.971 252.521,281.361 251.101,280.151 C 249.531,278.731 248.141,276.561 246.941,273.651 L 246.191,274.821 C 243.911,277.951 241.101,280.191 237.761,281.541 C 235.98,282.46 233.98,282.711 231.74,282.291 C 229.501,281.861 227.591,280.621 226.031,278.551 C 223.751,275.42 222.861,271.161 223.361,265.751 C 223.861,260.991 225.281,256.691 227.631,252.851 C 230.471,248.371 233.821,246.091 237.661,246.021 C 238.791,246.021 239.931,246.271 241.071,246.771 Z "/>
		<path id="dp_path018" fill="none" fill-rule="evenodd" stroke="black" stroke-width="7.33333" d="M 84.3573,512.896 C 115.681,508.717 158.145,506.805 191.657,499.296 C 205.528,496.188 246.545,477.963 256.797,476.499 C 257.985,476.329 258.544,478.649 259.557,477.696"/>
		<path id="dp_path019" fill="cyan" d="M 182.273,84.44 L 142.621,39.9187 L 144.311,36.4693 L 203.856,40.4053 L 201.609,44.988 L 150.032,41.412 L 184.52,79.8573 Z "/>
		<path id="dp_path020" fill="cyan" d="M 238.275,59.7947 C 235.389,60.992 232.453,62.9827 229.456,65.7547 C 229.261,65.9347 226.755,68.5027 221.928,73.4427 C 220.681,74.568 218.824,76.268 216.359,78.5347 C 215.893,78.9747 214.979,80.0227 213.615,81.68 C 213.264,82.1053 209.865,86.7293 203.413,95.568 C 202.529,95.5173 201.215,95.6573 199.453,95.9787 L 199.865,95.1373 C 200.031,94.8 200.009,94.496 199.793,94.212 C 199.421,94.208 199.275,94.216 199.36,94.2587 C 198.908,94.036 198.625,93.5413 198.504,92.752 C 198.384,91.9613 198.439,91.3387 198.657,90.8933 C 199.277,89.6293 200.599,88.4413 202.623,87.3307 C 204.645,86.22 205.937,84.9827 206.5,83.6187 L 206.963,83.328 L 206.912,82.7773 L 221.459,67.4747 C 224.773,63.9853 227.141,61.644 228.559,60.4587 C 231.384,58.0213 234.225,56.3493 237.063,55.4507 C 237.343,55.516 237.557,55.5867 237.695,55.6533 C 238.341,55.9707 238.496,57.0347 238.164,58.8587 C 238.012,59.096 238.047,59.4067 238.275,59.7947 Z "/>
		<path id="dp_path021" fill="cyan" d="M 295.172,114.685 L 235.691,110.621 L 237.937,106.037 L 289.465,109.751 L 255.027,71.168 L 257.273,66.5853 L 296.863,111.237 Z "/>
	</g>
</svg>